<svg width="27" height="32" viewBox="0 0 27 32" fill="none" xmlns="http://www.w3.org/2000/svg">
            <path d="M13.4865 0.523438C6.0345 0.523438 0 7.46919 0 16.0273C0 24.5855 6.0345 31.5312 13.4865 31.5312C20.952 31.5312 27 24.5855 27 16.0273C27 7.46919 20.952 0.523438 13.4865 0.523438ZM22.842 9.82578H18.8595C18.4275 7.88779 17.8065 6.02732 16.9965 4.30639C19.4591 5.28004 21.5341 7.2393 22.842 9.82578ZM13.5 3.68623C14.634 5.56516 15.5041 7.6369 16.0785 9.82578H10.9215C11.4959 7.6369 12.366 5.56516 13.5 3.68623ZM3.051 19.1281C2.82392 18.1149 2.70603 17.0735 2.7 16.0273C2.7 14.9576 2.835 13.9188 3.051 12.9266H7.614C7.49638 13.9548 7.43326 14.9903 7.425 16.0273C7.425 17.0816 7.506 18.1049 7.614 19.1281H3.051ZM4.158 22.2289H8.1405C8.5725 24.1669 9.1935 26.0274 10.0035 27.7483C7.53839 26.7799 5.46192 24.8193 4.158 22.2289ZM8.1405 9.82578H4.158C5.46192 7.2354 7.53839 5.27478 10.0035 4.30639C9.18868 6.05197 8.56302 7.90556 8.1405 9.82578ZM13.5 28.3685C12.366 26.4895 11.4959 24.4178 10.9215 22.2289H16.0785C15.5041 24.4178 14.634 26.4895 13.5 28.3685ZM16.659 19.1281H10.341C10.2076 18.1014 10.1355 17.0654 10.125 16.0273C10.125 14.9731 10.2195 13.9343 10.341 12.9266H16.659C16.7805 13.9343 16.875 14.9731 16.875 16.0273C16.875 17.0816 16.7805 18.1049 16.659 19.1281ZM16.9965 27.7483C17.8113 26.0027 18.437 24.1491 18.8595 22.2289H22.842C21.5341 24.8154 19.4591 26.7746 16.9965 27.7483ZM19.386 19.1281C19.494 18.1049 19.575 17.0816 19.575 16.0273C19.575 14.9731 19.494 13.9498 19.386 12.9266H23.949C24.165 13.9188 24.3 14.9576 24.3 16.0273C24.3 17.0971 24.165 18.1359 23.949 19.1281H19.386Z" fill="#F24251"/>
            </svg>